<svg xmlns="http://www.w3.org/2000/svg" width="650" height="520">
    <!-- <defs> -->
        <style>
            .cls-1{fill:#e4e4e6}.cls-2{fill:#eeeeef}.cls-3{fill:#dbdbde}.cls-4{fill:#f2f2f3}.cls-6{fill:#c9c8cd}.cls-7{fill:#f43939}.cls-8{fill:#fff}.cls-9{fill:#f88888}.cls-10{fill:#bbbac0}.cls-11{fill:#7e7b88}.cls-15{fill:#b07156}.cls-19{fill:#f99a9a}
        </style>
    <!-- </defs> -->
    <g id="Layer_3" data-name="Layer 3">
        <path class="cls-1" d="M393 185.407c8.5 0 8.5-34.063 16.999-34.063 8.498 0 8.498 34.063 16.996 34.063 8.499 0 8.499-54.545 16.998-54.545s8.499 44.304 16.998 44.304c8.5 0 8.5-63.761 17-63.761 8.498 0 8.498 63.761 16.996 63.761 8.5 0 8.5-23.822 17.001-23.822 8.501 0 8.501 34.063 17.003 34.063s8.502-45.328 17.004-45.328 8.503 45.328 17.005 45.328v13.598H393Z"/>
        <path class="cls-2" d="M189.951 36H21.05A8.049 8.049 0 0 0 13 44.049V202.95A8.049 8.049 0 0 0 21.049 211H189.95a8.049 8.049 0 0 0 8.049-8.049V44.05A8.049 8.049 0 0 0 189.951 36ZM185 198H26V49h159Z"/>
        <path class="cls-3" d="M161.158 76.715h-29.354a3 3 0 0 1 0-6h29.354a3 3 0 0 1 0 6ZM118.151 76.715H50.148a3 3 0 0 1 0-6h68.003a3 3 0 0 1 0 6ZM127.249 93.898h-6.07a3 3 0 0 1 0-6h6.07a3 3 0 0 1 0 6ZM109.067 93.898H50.148a3 3 0 1 1 0-6h58.92a3 3 0 1 1 0 6ZM148.009 111.082h-16.69a3 3 0 0 1 0-6h16.69a3 3 0 0 1 0 6ZM118.692 111.082H73.657a3 3 0 0 1 0-6h45.035a3 3 0 0 1 0 6ZM62.318 111.082h-12.17a3 3 0 1 1 0-6h12.17a3 3 0 1 1 0 6ZM159.64 128.265H96.498a3 3 0 1 1 0-6h63.144a3 3 0 0 1 0 6ZM82.516 128.265H50.148a3 3 0 1 1 0-6h32.368a3 3 0 0 1 0 6ZM113.88 145.449H50.149a3 3 0 1 1 0-6h63.733a3 3 0 0 1 0 6Z"/>
        <path class="cls-2" d="M627.94 225.156H429.716a8.06 8.06 0 0 0-8.061 8.061v85.672a8.06 8.06 0 0 0 8.06 8.06H627.94a8.06 8.06 0 0 0 8.061-8.06v-85.672a8.06 8.06 0 0 0-8.06-8.06Zm-153.722 8.484a4.778 4.778 0 1 1-4.779 4.778 4.778 4.778 0 0 1 4.779-4.778Zm-17.748 0a4.778 4.778 0 1 1-4.779 4.778 4.778 4.778 0 0 1 4.779-4.778Zm-16.383 0a4.778 4.778 0 1 1-4.779 4.778 4.778 4.778 0 0 1 4.779-4.778ZM620 316H436v-62h184Z"/>
        <path class="cls-1" d="M581.652 270.737h-27.205a2.5 2.5 0 0 1 0-5h27.205a2.5 2.5 0 0 1 0 5ZM542.337 270.737h-56.071a2.5 2.5 0 0 1 0-5h56.07a2.5 2.5 0 0 1 0 5ZM474.544 270.737h-23.828a2.5 2.5 0 0 1 0-5h23.828a2.5 2.5 0 0 1 0 5ZM566.12 282.202h-58.347a2.5 2.5 0 0 1 0-5h58.346a2.5 2.5 0 0 1 0 5ZM498.419 282.202h-47.703a2.5 2.5 0 0 1 0-5h47.703a2.5 2.5 0 0 1 0 5ZM573.886 294.676h-16.469a2.5 2.5 0 0 1 0-5h16.469a2.5 2.5 0 0 1 0 5ZM546.155 294.676h-67.159a2.5 2.5 0 0 1 0-5h67.16a2.5 2.5 0 0 1 0 5ZM468.492 294.676h-17.776a2.5 2.5 0 0 1 0-5h17.776a2.5 2.5 0 0 1 0 5ZM560.941 306.14h-24.99a2.5 2.5 0 0 1 0-5h24.99a2.5 2.5 0 0 1 0 5ZM524.425 306.14h-73.71a2.5 2.5 0 0 1 0-5h73.71a2.5 2.5 0 0 1 0 5Z"/>
        <rect class="cls-2" x="339.847" y="35.757" width="22.807" height="150.757" rx="11.404"/>
        <rect class="cls-2" x="308.611" y="35.757" width="22.807" height="150.757" rx="11.404"/>
        <rect class="cls-4" x="277.376" y="35.757" width="22.807" height="150.757" rx="11.404"/>
        <rect class="cls-4" x="246.14" y="35.757" width="22.807" height="150.757" rx="11.404"/>
        <rect class="cls-4" x="214.904" y="35.757" width="22.807" height="150.757" rx="11.404"/>
        <rect class="cls-3" x="339.847" y="132.487" width="22.807" height="54.027" rx="11.404"/>
        <rect class="cls-3" x="308.611" y="151.631" width="22.807" height="34.882" rx="11.404"/>
        <rect class="cls-3" x="277.376" y="92.183" width="22.807" height="94.331" rx="11.404"/>
        <rect class="cls-3" x="246.14" y="116.365" width="22.807" height="70.148" rx="11.404"/>
        <rect class="cls-3" x="214.904" y="132.487" width="22.807" height="54.027" rx="11.404"/>
        <circle class="cls-3" cx="66.383" cy="270.093" r="9.706"/>
        <path d="M145.204 224H20.796A5.796 5.796 0 0 0 15 229.796v85.408A5.796 5.796 0 0 0 20.796 321h124.408a5.796 5.796 0 0 0 5.796-5.796v-85.408a5.796 5.796 0 0 0-5.796-5.796Zm-41.947 47.918-30.69 32.298-6.734-7.086a11.239 11.239 0 0 0-16.295 0L35.408 312H24v-78h117v60.86l-21.448-22.942a11.239 11.239 0 0 0-16.295 0Z" style="fill:#efeff0"/>
        <path class="cls-2" d="M566.945 76h-178.89A8.055 8.055 0 0 0 380 84.055v118.89a8.055 8.055 0 0 0 8.055 8.055h178.89a8.055 8.055 0 0 0 8.055-8.055V84.055A8.055 8.055 0 0 0 566.945 76ZM562 198H393V89h169Z"/>
    </g>
    <g id="Layer_4" data-name="Layer 4">
        <path class="cls-3" d="m600.55 431.007 7.32-15.328a7.017 7.017 0 0 1 13.212 1.638 9.488 9.488 0 0 1-7.51 11.19ZM590.334 446.13l-4.065-30.02a12.179 12.179 0 1 0-19.648 11.168Z"/>
        <path class="cls-3" d="m641.716 411.954-.193-1.574a11.007 11.007 0 0 0-21.548-1.548l-10.235 37.643 28.321-24.916a11.006 11.006 0 0 0 3.655-9.605ZM587.788 365.43a10.56 10.56 0 0 0-4.16 12.772l16.413 41.766 6.307-28.873a29.892 29.892 0 0 0-3.982-22.423 10.558 10.558 0 0 0-14.578-3.242Z"/>
        <path class="cls-6" d="M603.678 458.175a1 1 0 0 1-.858-1.514l24.742-41.352a1 1 0 0 1 1.717 1.027l-24.742 41.352a1.001 1.001 0 0 1-.86.487Z"/>
        <path class="cls-6" d="M604.485 475.02a1 1 0 0 1-.996-.918l-7.87-95.703a1 1 0 0 1 1.993-.164l7.871 95.702a1 1 0 0 1-.915 1.08 1.186 1.186 0 0 1-.083.003ZM600.552 469.879a.999.999 0 0 1-.904-.57l-22.4-46.96a1 1 0 1 1 1.805-.86l22.4 46.96a1 1 0 0 1-.901 1.43Z"/>
        <path class="cls-3" d="M578.554 463.09v26.871a23.38 23.38 0 0 0 4.75 14.126l1.258 1.66h37.26l1.258-1.66a23.38 23.38 0 0 0 4.75-14.126V463.09Z"/>
        <path class="cls-6" d="M599.769 497.004a9.622 9.622 0 0 0-9.216 6.867l-.56 1.875h31.829l1.258-1.659a23.36 23.36 0 0 0 3.65-7.083ZM578.554 470.073h49.276v2h-49.276z"/>
        <path class="cls-3" d="m589.35 448.388-7.296-3.32a10.786 10.786 0 0 0-14.699 6.405 3.713 3.713 0 0 0 5.05 4.56Z"/>
        <path class="cls-7" d="M499.687 379.488h-18.82a1.757 1.757 0 0 1-1.744-2.041l3.394-21.039a1.756 1.756 0 0 1 1.744-1.483h12.044a1.767 1.767 0 0 1 1.745 1.483l3.358 21.039a1.756 1.756 0 0 1-1.721 2.041Z"/>
        <path d="M489.027 379.488h2.5v7.262h-2.5z"/>
        <path class="cls-8" d="M495.455 367.942a5.178 5.178 0 1 0-6.428 5.008v6.538h2.5v-6.538a5.174 5.174 0 0 0 3.928-5.008Zm-5.178 2.678a2.678 2.678 0 1 1 2.678-2.678 2.68 2.68 0 0 1-2.678 2.678Z"/>
        <path class="cls-9" d="M500.423 354a1.25 1.25 0 0 1-.91-2.107l6.824-7.239a1.25 1.25 0 1 1 1.818 1.715l-6.823 7.238a1.245 1.245 0 0 1-.91.393ZM480.132 354a1.245 1.245 0 0 1-.91-.393l-6.823-7.238a1.25 1.25 0 0 1 1.819-1.715l6.823 7.239a1.25 1.25 0 0 1-.91 2.107ZM490.277 350.12a1.25 1.25 0 0 1-1.25-1.25V338a1.25 1.25 0 0 1 2.5 0v10.87a1.25 1.25 0 0 1-1.25 1.25Z"/>
        <path class="cls-10" d="M416.633 385.513h146.571a8.695 8.695 0 0 1 8.695 8.695v103.097H407.94V394.208a8.695 8.695 0 0 1 8.694-8.695Z"/>
        <path class="cls-8" d="M419.738 399.177h140.361v95.644H419.738z"/>
        <path class="cls-11" d="M575.224 506h-170.61a17.39 17.39 0 0 1-14.811-8.276l-1.35-2.192a3.726 3.726 0 0 1 3.174-5.68H588.21a3.726 3.726 0 0 1 3.174 5.68l-1.35 2.192a17.39 17.39 0 0 1-14.81 8.276Z"/>
        <path d="M470.045 489.852h39.748v2.485a6.21 6.21 0 0 1-6.21 6.21h-27.328a6.21 6.21 0 0 1-6.21-6.21v-2.485Z" style="fill:#a3a1aa"/>
        <circle class="cls-3" cx="489.919" cy="392.345" r="3.105"/>
        <path class="cls-7" d="M515.967 410.918h-51.38a8.887 8.887 0 0 0-8.888 8.887v46.314a8.887 8.887 0 0 0 8.888 8.888h51.38a8.888 8.888 0 0 0 8.888-8.888v-46.314a8.888 8.888 0 0 0-8.888-8.887Z"/>
        <circle class="cls-8" cx="490.277" cy="442.962" r="20.835"/>
        <circle cx="490.277" cy="434.993" r="4.103"/>
        <circle cx="490.277" cy="450.931" r="4.103"/>
        <path d="M116 342.729c19.344-27.384 56.275-66.325 70.093-70.596 18.187-5.621 55.02-3.015 67.079 9.296 6.278 6.409 18.59 37.182 23.364 35.926 9.45-2.487 28.892-50.498 28.892-50.498" style="stroke:#000;fill:none;stroke-miterlimit:10"/>
        <path d="M303.146 279.78c4.988-9.547 8.562-17.005 8.562-17.005" style="stroke:#b07156;stroke-width:29px;fill:none;stroke-miterlimit:10"/>
        <path class="cls-15" d="M327.294 247.96a4.161 4.161 0 0 0-4.638.251 4.134 4.134 0 0 0-6.343-1.77 4.136 4.136 0 0 0-6.343-1.772 4.153 4.153 0 1 0-5.175 5.495l19.03 5.312a4.162 4.162 0 0 0 3.47-7.516Z"/>
        <path class="cls-10" d="M205.733 235.153c-86.357 8.375-118.079 77.796-146.065 139.044-17.02 37.25-33.234 72.7-59.668 91.363v18.83c35.7-19.263 54.447-60.269 74.22-103.542 27.471-60.12 55.877-122.285 133.058-129.77 55.668-5.397 129.39 23.428 130.128 23.72l5.887-14.877c-3.158-1.25-78.01-30.54-137.56-24.768Z"/>
        <path class="cls-15" d="m298.1 253.107-4.022 6.25a5.76 5.76 0 0 0 1.4 7.735l7.933 5.92 14.199-1.864c-6.325-11.079-15.928-10.916-15.928-10.916l2.193-3.409a3.434 3.434 0 1 0-5.775-3.716Z"/>
        <path class="cls-15" d="m307.166 255.412 2.776-9.365 6.226 1.968-3.057 9.16a3.1 3.1 0 1 1-5.945-1.763Z"/>
        <path class="cls-15" d="m313.111 257.174 2.429-9.096 6.189 1.843-2.673 9.016a3.1 3.1 0 1 1-5.945-1.763Z"/>
        <path class="cls-15" d="m320.101 255.41 1.28-5.51 6.293 1.783-1.628 5.49a3.1 3.1 0 0 1-5.945-1.762Z"/>
        <path d="M317.61 272.148a.998.998 0 0 1-.869-.503c-5.06-8.863-12.311-10.184-14.413-10.377a1 1 0 1 1 .184-1.992c2.345.216 10.427 1.676 15.966 11.376a1 1 0 0 1-.868 1.496Z"/>
        <path class="cls-15" d="m308.56 246.748-.292.984a3.318 3.318 0 0 1-6.363-1.887l.292-.984 5.534-1.66Z"/>
        <path style="stroke:#262626;fill:none;stroke-miterlimit:10" d="m190.961 327.906 34.921 159.029"/>
        <path d="M232.295 198.13s12.652-.336 18.113 9.185c4.9 8.542-3.928 18.465-3.928 18.465l-24.524-17.071Z"/>
        <path d="M233.858 198.13s-13.224-2.284-21.619 7.374c-7.876 9.062-5.26 21.135-11.325 25.962-6.958 5.538-20.3 3.218-33.173 13.368-22.492 17.734-8.107 48.057-8.107 48.057l64.364-29.46Z"/>
        <path class="cls-11" d="M250.05 490.801a15.262 15.262 0 0 1-13.254-6.595l-9.41-14.068-21.314 6.705 13.59 31.11 43.113-13.563c-2.081-3.448-5.105-3.976-12.724-3.589ZM136.185 427.39a15.262 15.262 0 0 1 13.792-5.383l16.74 2.486 9.112-19.45s-31.163-11.494-31.923-11.682l-18.93 41.04c3.952.776 6.375-1.108 11.21-7.01Z"/>
        <path class="cls-15" d="M113.442 363.46a2.565 2.565 0 0 1-.568-3.385l5.556-9.229-8.119 9.51a2.827 2.827 0 0 1-3.423.756 2.715 2.715 0 0 1-.968-3.927l7.184-10.415-6 8.533a3.003 3.003 0 0 1-4.775.205 3.164 3.164 0 0 1-.215-3.579l5.199-9.184-5.676 4.609a2.107 2.107 0 0 1-2.811-.075 2.024 2.024 0 0 1-.053-2.725l9.143-11.865 2.386-3.409 20.907 13.19-2.373 3.41-12.005 17.148a2.445 2.445 0 0 1-3.39.431Z"/>
        <path d="M107.48 355.756a1 1 0 0 1-.808-1.589l6.876-9.441a1 1 0 1 1 1.617 1.177l-6.876 9.442a1 1 0 0 1-.81.41ZM107.313 343.731a1 1 0 0 1-.805-1.592l1.031-1.403a1 1 0 0 1 1.611 1.186l-1.03 1.402a.998.998 0 0 1-.808.407Z"/>
        <path d="M231.566 331.675s2.819 87.202-16.456 94.211c-15.2 5.527-65.948-10.3-65.948-10.3" style="stroke-width:42px;stroke:#000;fill:none;stroke-miterlimit:10"/>
        <path d="m215.738 494.472-35.926-164.556 34.553-7.149 34.033 156.443-32.66 15.262z"/>
        <path class="cls-15" d="m235.931 241.002-21.234-1.737-1.968 24.045 21.232 1.74Z"/>
        <path class="cls-15" d="m248.315 218.012.13 22.997a9.864 9.864 0 0 1-9.735 9.93l-24.337.21-.146-32.991a15.461 15.461 0 0 1 15.333-15.511h3.245a15.478 15.478 0 0 1 15.51 15.365Z"/>
        <path d="M231.888 202.375h-3.707c-4.77.04-9.604 1.538-12.957 4.931a18.807 18.807 0 0 0-4.929 13.178v15.013l13.231-4.943c13.441-3.643 5.15-19.093 24.157-20.523-1.511-3.022-6.001-5.098-8.346-6.13a18.012 18.012 0 0 0-7.449-1.526ZM242.49 228.022a1.038 1.038 0 1 0-1.038-1.038 1.04 1.04 0 0 0 1.039 1.038ZM240.025 224.34a1.25 1.25 0 0 1-.528-2.383 8.323 8.323 0 0 1 5.728-.477 1.25 1.25 0 1 1-.666 2.41 5.838 5.838 0 0 0-4.007.333 1.242 1.242 0 0 1-.527.117Z"/>
        <path class="cls-8" d="M243.958 240.167a35.834 35.834 0 0 1-6.733-3.878c-.26 5.857 3.261 5.225 6.733 3.878Z"/>
        <path class="cls-15" d="M248.056 228.39c.162 1.526 1.817 3.019 2.84 4.17a6.408 6.408 0 0 1 1.492 2.386 1.628 1.628 0 0 1 .023.69 1.625 1.625 0 0 1-1.435 1.321l-6.49.666Z"/>
        <path d="M169.135 335.82s-6.658 23.993-3.14 37.057c3.039 11.287 19.847 28.891 22.108 40.699 2.018 10.541-5.527 48.739-.251 61.3 3.358 7.997 14.571 25.752 14.571 25.752l36.554-17.084-41.076-147.85ZM235.14 251.003h-4.948a1.219 1.219 0 0 0-1.217 1.217 1.233 1.233 0 0 0 1.233 1.217h4.722ZM223.128 224.968s-1.563 37.508-25.125 36.065l9.978-35.824 16.47-9.618 3.847 4.93Z"/>
        <path class="cls-7" d="M255.935 347.502c-22.36 22.234-56.276-7.285-95.97 3.266.502-22.108 15.576-61.049 39.443-85.418l52.256 4.02c6.532 22.861 7.537 42.457 4.271 78.132Z"/>
        <path class="cls-7" d="M141.374 362.576c-13.819-6.355-29-16.333-38.062-27.635a412.013 412.013 0 0 1 38.789-46.942c25.744-26.348 36.055-29.536 39.444-30.583 21.288-6.583 65.103-4.659 82.63 13.233 4.01 4.093 7.965 9.02 14.874 17.06.08.094 7.034-16.33 12.435-28.891 10.05 8.667 23.49 15.074 38.941 18.214a251.273 251.273 0 0 1-15.074 26.38c-15.98 23.844-27.133 27.383-34.895 28.84-12.915 2.423-20.166-8.357-22.616-12.203-2.648-4.156-5.442-9.439-8.144-14.548-2.422-4.58-6.065-11.468-7.626-13.39-1.81-1.725-8.533-5.22-21.892-6.751-10.956-1.255-18.43 2.829-25.417 4.987-8.288 3.12-40.449 35.173-53.387 72.23Z"/>
        <path class="cls-15" d="M223.524 235.405a5.727 5.727 0 1 0-5.728-5.728 5.728 5.728 0 0 0 5.728 5.728Z"/>
        <g style="opacity:.7">
            <path class="cls-19" d="M163.174 268.468c.722 6.74 4.917 13.177 9.371 14.885 4.03 1.546 8.526-2.79 11.618-4.582 3.093-1.792 9.266-3.85 14.182-1.313 4.916 2.536 7.47 13.06 9.14 16.56 2.282 4.779 5.915 10.733 11.467 11.52a13.51 13.51 0 0 0 11.26-3.112c3.566-3.005 4.575-8.632 3.956-13.17-1.266-9.284-10.703-19.136-15.589-28.713-.903-1.771-1.943-3.98-3.093-6.43-12.852-.648-25.267.621-33.941 3.303-2.248.694-7.548 2.34-18.371 11.052ZM156.142 314.842c.365-6.637-4.11-18.426-10.67-30.244a366.6 366.6 0 0 0-3.371 3.4 412.013 412.013 0 0 0-38.789 46.943c6.176 7.702 15.195 14.786 24.686 20.531a22.04 22.04 0 0 0 10.494-6.148c6.433-6.719 5.433-16.583 7.141-22.494 1.602-5.545 10.17-5.825 10.509-11.988Z"/>
            <path class="cls-19" d="M164.591 294.581c-2.21 1.746-5.218 4.36-5.29 8.006-.058 3.015 3.11 5.105 5.219 5.646 5.29 1.359 17.012.715 20.014-.357 3.002-1.072 8.506-3.788 8.22-9.292-.286-5.504-5.504-8.792-10.079-9.292-4.574-.5-15.368 3.145-18.084 5.289ZM283.011 297.553c-.056-9.397 16.972-19.598 12.82-32.568a8.897 8.897 0 0 0-4.705-5.332c-5.346 12.442-11.999 28.148-12.077 28.056-6.91-8.04-10.864-12.967-14.873-17.06-7.562-7.718-20.018-12.46-33.444-14.834a29.759 29.759 0 0 0 3.08 11.746c3.43 7.112 15.58 16.468 18.927 24.265 1.892 4.406 4.8 21.013 9.362 25.758 4.707 4.895 13.702 4.684 18.813-.338 6.243-6.134 2.127-14.73 2.097-19.693ZM255.935 347.502c.756-8.252 1.277-15.63 1.559-22.398-16.423-21.286-60.985-16.925-70.713-8.24-8.761 7.82 2.14 16.793-.64 24.338-1.126 3.057-3.91 5.033-6.798 7.209 31.323.227 57.967 17.612 76.592-.909ZM315.351 303.411c4.098-6.113 7.935-12.826 10.714-17.954-10.389-.862-25.11 1.512-28.389 7.242-3.45 6.031.537 15.943-.774 19.4s-7.48 8.581-7.241 13.409a14.143 14.143 0 0 0 .69 3.442c6.627-3.427 14.836-10.373 25-25.539Z"/>
        </g>
        <path d="M226.736 232.923a1.245 1.245 0 0 1-.873-.356l-4.089-3.99a1.25 1.25 0 0 1 1.747-1.79l4.088 3.991a1.25 1.25 0 0 1-.873 2.145ZM272.767 302.777a1.25 1.25 0 0 1-1.083-1.873 141.947 141.947 0 0 0 9.205-19.526 1.25 1.25 0 0 1 2.35.854 144.44 144.44 0 0 1-9.387 19.918 1.25 1.25 0 0 1-1.085.627ZM160.906 324.76a1.25 1.25 0 0 1-1.052-1.923c9.886-15.492 26.354-26.653 27.05-27.121a1.25 1.25 0 0 1 1.394 2.075c-.166.112-16.737 11.348-26.337 26.392a1.25 1.25 0 0 1-1.055.577ZM256.941 325.89a1.07 1.07 0 0 1-.095-.003 1.249 1.249 0 0 1-1.152-1.341c1.489-19.61 2.252-32.017 2.26-32.14a1.276 1.276 0 0 1 1.323-1.172 1.251 1.251 0 0 1 1.172 1.325c-.008.123-.772 12.546-2.262 32.176a1.25 1.25 0 0 1-1.246 1.156Z"/>
        <path class="cls-15" d="M197.524 254.466c5.123 8.137 15.547 14.837 28.08 15.696a38.282 38.282 0 0 0 26.306-7.92c-15.459-7.343-37.145-9.387-54.386-7.776Z"/>
        <path class="cls-8" d="M181.037 506.159h81.738v9.365h-81.738zM248.397 480.46a1.252 1.252 0 0 1-1.22-.984l-24.452-112.4a1.25 1.25 0 0 1 2.443-.531l24.452 112.4a1.25 1.25 0 0 1-1.223 1.515ZM184.846 453.169l-.07-.002a1.25 1.25 0 0 1-1.18-1.316c.289-5.232.782-10.677 1.258-15.943.844-9.318 1.641-18.12.88-22.096-.882-4.615-4.61-10.367-8.213-15.93a1.25 1.25 0 1 1 2.097-1.359c3.735 5.765 7.597 11.725 8.571 16.818.828 4.322.053 12.882-.844 22.793-.475 5.244-.966 10.667-1.252 15.853a1.25 1.25 0 0 1-1.247 1.182Z"/>
        <path class="cls-7" d="M341.346 257.206h21.71v29.009h-21.71a2.424 2.424 0 0 1-2.424-2.424V259.63a2.424 2.424 0 0 1 2.424-2.424Z" transform="rotate(21.953 350.989 271.71)"/>
        <path d="M369.687 270.174h27.53a3.634 3.634 0 0 1 3.634 3.635 3.634 3.634 0 0 1-3.634 3.634h-27.53v-7.269Z" transform="rotate(21.953 385.27 273.809)"/>
        <path d="M361.56 290.338h27.53a3.634 3.634 0 0 1 3.634 3.634 3.634 3.634 0 0 1-3.635 3.635h-27.53v-7.27Z" transform="rotate(21.953 377.142 293.972)"/>
        <path class="cls-7" d="M360.415 252.722h16.28a3.25 3.25 0 0 1 3.25 3.25v42.364a3.25 3.25 0 0 1-3.25 3.25h-16.28a11.374 11.374 0 0 1-11.374-11.374v-26.116a11.374 11.374 0 0 1 11.374-11.374Z" transform="rotate(21.953 364.493 277.154)"/>
        <path d="M345.072 285.253a1.25 1.25 0 0 1-1.159-1.718l10.255-25.442a1.25 1.25 0 1 1 2.318.935l-10.255 25.443a1.25 1.25 0 0 1-1.159.782ZM339.944 283.297a1.25 1.25 0 0 1-1.159-1.718l10.256-25.442a1.25 1.25 0 1 1 2.318.935l-10.255 25.443a1.25 1.25 0 0 1-1.16.782Z"/>
        <path class="cls-11" d="M642.5 506.75h-575a1.25 1.25 0 0 1 0-2.5h575a1.25 1.25 0 0 1 0 2.5Z"/>
    </g>
</svg>
