<svg xmlns="http://www.w3.org/2000/svg" width="650" height="520" viewBox="0 0 650 520">
  <defs>
    <style>
      .cls-1 {
        fill: #e4e4e6;
      }

      .cls-2 {
        fill: #eeeeef;
      }

      .cls-3 {
        fill: #dbdbde;
      }

      .cls-4 {
        fill: #f2f2f3;
      }

      .cls-5 {
        fill: #efeff0;
      }

      .cls-6 {
        fill: #c9c8cd;
      }

      .cls-7 {
        fill: #f43939;
      }

      .cls-8 {
        fill: #fff;
      }

      .cls-9 {
        fill: #f88888;
      }

      .cls-10 {
        fill: #bbbac0;
      }

      .cls-11 {
        fill: #7e7b88;
      }

      .cls-12 {
        fill: #a3a1aa;
      }

      .cls-13, .cls-14, .cls-16, .cls-17 {
        fill: none;
        stroke-miterlimit: 10;
      }

      .cls-13, .cls-17 {
        stroke: #000;
      }

      .cls-14 {
        stroke: #b07156;
        stroke-width: 29px;
      }

      .cls-15 {
        fill: #b07156;
      }

      .cls-16 {
        stroke: #262626;
      }

      .cls-17 {
        stroke-width: 42px;
      }

      .cls-18 {
        opacity: 0.7;
      }

      .cls-19 {
        fill: #f99a9a;
      }
    </style>
  </defs>
  <g id="Layer_3" data-name="Layer 3">
    <path class="cls-1" d="M393,185.4073c8.49946,0,8.49946-34.0629,16.99891-34.0629,8.498,0,8.498,34.0629,16.996,34.0629,8.49888,0,8.49888-54.54483,16.99776-54.54483,8.49911,0,8.49911,44.30386,16.99822,44.30386,8.50013,0,8.50013-63.76169,17.00025-63.76169,8.4978,0,8.4978,63.76169,16.9956,63.76169,8.50076,0,8.50076-23.82193,17.00151-23.82193,8.50117,0,8.50117,34.0629,17.00234,34.0629,8.50234,0,8.50234-45.328,17.00469-45.328s8.50234,45.328,17.00468,45.328v13.59781H393Z"/>
    <path class="cls-2" d="M189.95111,36H21.04889A8.04889,8.04889,0,0,0,13,44.04889V202.95111A8.04893,8.04893,0,0,0,21.04889,211H189.95111A8.04893,8.04893,0,0,0,198,202.95111V44.04889A8.04889,8.04889,0,0,0,189.95111,36ZM185,198H26V49H185Z"/>
    <g>
      <path class="cls-3" d="M161.1582,76.71484H131.80371a3,3,0,0,1,0-6H161.1582a3,3,0,0,1,0,6Z"/>
      <path class="cls-3" d="M118.15137,76.71484H50.14844a3,3,0,0,1,0-6h68.00293a3,3,0,0,1,0,6Z"/>
      <path class="cls-3" d="M127.249,93.89844h-6.07031a3,3,0,0,1,0-6H127.249a3,3,0,0,1,0,6Z"/>
      <path class="cls-3" d="M109.06738,93.89844H50.14844a3,3,0,1,1,0-6h58.91894a3,3,0,1,1,0,6Z"/>
      <path class="cls-3" d="M148.00879,111.082H131.31934a3,3,0,0,1,0-6h16.68945a3,3,0,0,1,0,6Z"/>
      <path class="cls-3" d="M118.69238,111.082H73.65723a3,3,0,0,1,0-6h45.03515a3,3,0,0,1,0,6Z"/>
      <path class="cls-3" d="M62.31836,111.082H50.14844a3,3,0,1,1,0-6H62.31836a3,3,0,1,1,0,6Z"/>
      <path class="cls-3" d="M159.64062,128.26514H96.49707a3,3,0,1,1,0-6h63.14355a3,3,0,0,1,0,6Z"/>
      <path class="cls-3" d="M82.51562,128.26514H50.14844a3,3,0,1,1,0-6H82.51562a3,3,0,0,1,0,6Z"/>
      <path class="cls-3" d="M113.88086,145.44873H50.14844a3,3,0,1,1,0-6h63.73242a3,3,0,0,1,0,6Z"/>
    </g>
    <path class="cls-2" d="M627.93921,225.15631H429.71655a8.06077,8.06077,0,0,0-8.06079,8.06079v85.67163a8.06076,8.06076,0,0,0,8.06079,8.06079H627.93921A8.06076,8.06076,0,0,0,636,318.88873V233.2171A8.06077,8.06077,0,0,0,627.93921,225.15631ZM474.21777,233.64a4.77839,4.77839,0,1,1-4.77832,4.77838A4.77835,4.77835,0,0,1,474.21777,233.64Zm-17.74817,0a4.77839,4.77839,0,1,1-4.77844,4.77838A4.77843,4.77843,0,0,1,456.4696,233.64Zm-16.38293,0a4.77839,4.77839,0,1,1-4.77844,4.77838A4.77839,4.77839,0,0,1,440.08667,233.64ZM620,316H436V254H620Z"/>
    <path class="cls-1" d="M581.65234,270.7373H554.44727a2.5,2.5,0,0,1,0-5h27.20507a2.5,2.5,0,0,1,0,5Z"/>
    <path class="cls-1" d="M542.33691,270.7373H486.26562a2.5,2.5,0,0,1,0-5h56.07129a2.5,2.5,0,0,1,0,5Z"/>
    <path class="cls-1" d="M474.544,270.7373H450.71582a2.5,2.5,0,0,1,0-5H474.544a2.5,2.5,0,0,1,0,5Z"/>
    <path class="cls-1" d="M566.11914,282.20215h-58.3457a2.5,2.5,0,0,1,0-5h58.3457a2.5,2.5,0,0,1,0,5Z"/>
    <path class="cls-1" d="M498.419,282.20215H450.71582a2.5,2.5,0,0,1,0-5H498.419a2.5,2.5,0,0,1,0,5Z"/>
    <path class="cls-1" d="M573.88574,294.67578H557.417a2.5,2.5,0,0,1,0-5h16.46875a2.5,2.5,0,0,1,0,5Z"/>
    <path class="cls-1" d="M546.15527,294.67578H478.99609a2.5,2.5,0,0,1,0-5h67.15918a2.5,2.5,0,0,1,0,5Z"/>
    <path class="cls-1" d="M468.49219,294.67578H450.71582a2.5,2.5,0,0,1,0-5h17.77637a2.5,2.5,0,0,1,0,5Z"/>
    <path class="cls-1" d="M560.94141,306.14062H535.9502a2.5,2.5,0,0,1,0-5h24.99121a2.5,2.5,0,0,1,0,5Z"/>
    <path class="cls-1" d="M524.4248,306.14062h-73.709a2.5,2.5,0,0,1,0-5h73.709a2.5,2.5,0,0,1,0,5Z"/>
    <g>
      <rect class="cls-2" x="339.84717" y="35.75695" width="22.80726" height="150.75662" rx="11.40362"/>
      <rect class="cls-2" x="308.61144" y="35.75695" width="22.80726" height="150.75662" rx="11.40362"/>
      <rect class="cls-4" x="277.37572" y="35.75695" width="22.80726" height="150.75662" rx="11.40362"/>
      <rect class="cls-4" x="246.14" y="35.75695" width="22.80726" height="150.75662" rx="11.40362"/>
      <rect class="cls-4" x="214.90427" y="35.75695" width="22.80726" height="150.75662" rx="11.40362"/>
    </g>
    <g>
      <rect class="cls-3" x="339.84717" y="132.48693" width="22.80726" height="54.02664" rx="11.40362"/>
      <rect class="cls-3" x="308.61144" y="151.63141" width="22.80726" height="34.88216" rx="11.40362"/>
      <rect class="cls-3" x="277.37572" y="92.18277" width="22.80726" height="94.3308" rx="11.40362"/>
      <rect class="cls-3" x="246.14" y="116.36527" width="22.80726" height="70.1483" rx="11.40362"/>
      <rect class="cls-3" x="214.90427" y="132.48693" width="22.80726" height="54.02664" rx="11.40362"/>
    </g>
    <circle class="cls-3" cx="66.38301" cy="270.09341" r="9.70626"/>
    <path class="cls-5" d="M145.20428,224H20.79572A5.79574,5.79574,0,0,0,15,229.79572v85.40856A5.79574,5.79574,0,0,0,20.79572,321H145.20428A5.79574,5.79574,0,0,0,151,315.20428V229.79572A5.79574,5.79574,0,0,0,145.20428,224Zm-41.94683,47.91809-30.691,32.2981-6.73389-7.08649a11.23868,11.23868,0,0,0-16.29425-.00006L35.40784,312H24V234H141v60.86066l-21.4483-22.94257A11.23878,11.23878,0,0,0,103.25745,271.91809Z"/>
    <path class="cls-2" d="M566.94482,76H388.05518A8.05516,8.05516,0,0,0,380,84.05518V202.94482A8.05521,8.05521,0,0,0,388.05518,211H566.94482A8.05521,8.05521,0,0,0,575,202.94482V84.05518A8.05516,8.05516,0,0,0,566.94482,76ZM562,198H393V89H562Z"/>
  </g>
  <g id="Layer_4" data-name="Layer 4">
    <path class="cls-3" d="M600.55046,431.00689l7.32-15.328a7.01742,7.01742,0,0,1,13.2115,1.63843,9.48794,9.48794,0,0,1-7.50937,11.18893Z"/>
    <path class="cls-3" d="M590.33381,446.1307l-4.06516-30.02a12.17855,12.17855,0,1,0-19.64749,11.167Z"/>
    <path class="cls-3" d="M641.71571,411.95409l-.19316-1.57425a11.00739,11.00739,0,0,0-21.54738-1.548L609.74043,446.475,638.061,421.55855a11.00607,11.00607,0,0,0,3.65474-9.60446Z"/>
    <path class="cls-3" d="M587.78833,365.43014a10.55964,10.55964,0,0,0-4.16043,12.77191l16.41279,41.76621,6.30688-28.87321a29.89236,29.89236,0,0,0-3.982-22.42306,10.55838,10.55838,0,0,0-14.57724-3.24185Z"/>
    <path class="cls-6" d="M603.67773,458.1748a.99981.99981,0,0,1-.85742-1.51367l24.74219-41.35254a1.00036,1.00036,0,0,1,1.7168,1.02735l-24.74219,41.35254A1.00148,1.00148,0,0,1,603.67773,458.1748Z"/>
    <path class="cls-6" d="M604.48535,475.01953a1.00025,1.00025,0,0,1-.99609-.918l-7.8711-95.70215a1.00044,1.00044,0,0,1,1.99414-.16406l7.8711,95.70215a1.00091,1.00091,0,0,1-.915,1.0791C604.54,475.01855,604.5127,475.01953,604.48535,475.01953Z"/>
    <path class="cls-6" d="M600.55176,469.87891a.99884.99884,0,0,1-.90332-.56934l-22.40039-46.96a.99984.99984,0,1,1,1.80468-.86133l22.40039,46.96a1.00014,1.00014,0,0,1-.90136,1.43067Z"/>
    <path class="cls-3" d="M578.554,463.08987v26.87148a23.37984,23.37984,0,0,0,4.75014,14.12585l1.25794,1.65885H621.8218l1.25793-1.65885a23.37985,23.37985,0,0,0,4.75015-14.12585V463.08987Z"/>
    <path class="cls-6" d="M599.76874,497.00384a9.62154,9.62154,0,0,0-9.21579,6.86742l-.55908,1.87479H621.8218l1.25793-1.65885a23.35957,23.35957,0,0,0,3.64993-7.08336Z"/>
    <rect class="cls-6" x="578.55371" y="470.07324" width="49.27637" height="2"/>
    <path class="cls-3" d="M589.35031,448.38773l-7.29607-3.32064a10.786,10.786,0,0,0-14.69878,6.40637,3.71313,3.71313,0,0,0,5.05041,4.55931Z"/>
    <path class="cls-7" d="M499.687,379.488H480.86736a1.7566,1.7566,0,0,1-1.74432-2.041l3.3937-21.03866a1.75556,1.75556,0,0,1,1.74432-1.48327h12.04416a1.76728,1.76728,0,0,1,1.74432,1.48327l3.3581,21.03866a1.75647,1.75647,0,0,1-1.72061,2.041Z"/>
    <rect x="489.02734" y="379.48828" width="2.5" height="7.26172"/>
    <path class="cls-8" d="M495.45508,367.94238a5.17776,5.17776,0,1,0-6.42774,5.00782v6.53808h2.5V372.9502A5.174,5.174,0,0,0,495.45508,367.94238Zm-5.17774,2.67774a2.67774,2.67774,0,1,1,2.67774-2.67774A2.68069,2.68069,0,0,1,490.27734,370.62012Z"/>
    <path class="cls-9" d="M500.42285,354a1.25,1.25,0,0,1-.90918-2.10742l6.82324-7.23828a1.24971,1.24971,0,1,1,1.81836,1.71484l-6.82324,7.23828A1.24483,1.24483,0,0,1,500.42285,354Z"/>
    <path class="cls-9" d="M480.13184,354a1.2448,1.2448,0,0,1-.90918-.39258l-6.82325-7.23828a1.24971,1.24971,0,0,1,1.81836-1.71484l6.82325,7.23828A1.25,1.25,0,0,1,480.13184,354Z"/>
    <path class="cls-9" d="M490.27734,350.11914a1.24991,1.24991,0,0,1-1.25-1.25V338a1.25,1.25,0,0,1,2.5,0v10.86914A1.24991,1.24991,0,0,1,490.27734,350.11914Z"/>
    <g>
      <path class="cls-10" d="M416.633,385.51332H563.20446a8.69491,8.69491,0,0,1,8.69491,8.69491V497.30509a0,0,0,0,1,0,0H407.93812a0,0,0,0,1,0,0V394.20824A8.69491,8.69491,0,0,1,416.633,385.51332Z"/>
      <rect class="cls-8" x="419.73836" y="399.17676" width="140.36077" height="95.64406"/>
      <path class="cls-11" d="M575.22439,506H404.6131a17.38984,17.38984,0,0,1-14.81019-8.27586l-1.3492-2.19245a3.72639,3.72639,0,0,1,3.17361-5.67939H588.21017a3.72639,3.72639,0,0,1,3.17361,5.67939l-1.3492,2.19245A17.38984,17.38984,0,0,1,575.22439,506Z"/>
      <path class="cls-12" d="M470.04466,489.8523h39.74818a0,0,0,0,1,0,0v2.48426a6.21065,6.21065,0,0,1-6.21065,6.21065H476.25531a6.21065,6.21065,0,0,1-6.21065-6.21065V489.8523A0,0,0,0,1,470.04466,489.8523Z"/>
      <circle class="cls-3" cx="489.91875" cy="392.34504" r="3.10533"/>
    </g>
    <g>
      <path class="cls-7" d="M515.9674,410.91764H464.58706a8.88746,8.88746,0,0,0-8.88776,8.88773v46.31352a8.88716,8.88716,0,0,0,8.88776,8.88773H515.9674a8.88788,8.88788,0,0,0,8.88772-8.88773V419.80537A8.88818,8.88818,0,0,0,515.9674,410.91764Z"/>
      <circle class="cls-8" cx="490.27721" cy="442.96213" r="20.83543"/>
      <g>
        <circle cx="490.27721" cy="434.99333" r="4.1033"/>
        <circle cx="490.27721" cy="450.93093" r="4.1033"/>
      </g>
    </g>
    <path class="cls-13" d="M115.99959,342.7289c19.34478-27.38418,56.27573-66.325,70.09343-70.5959,18.18668-5.62134,55.01958-3.01477,67.07867,9.29555,6.27815,6.409,18.59109,37.18218,23.36447,35.926,9.45046-2.487,28.89156-50.49742,28.89156-50.49742"/>
    <path class="cls-14" d="M303.14647,279.77937c4.9878-9.54671,8.562-17.00472,8.562-17.00472"/>
    <path class="cls-15" d="M327.294,247.96006a4.161,4.161,0,0,0-4.6384.25123,4.13427,4.13427,0,0,0-6.34289-1.77106,4.13621,4.13621,0,0,0-6.3429-1.77106,4.15266,4.15266,0,1,0-5.17476,5.49449l19.02908,5.31209a4.16242,4.16242,0,0,0,3.47-7.51565Z"/>
    <path class="cls-10" d="M205.7334,235.15283C119.376,243.52783,87.6543,312.94922,59.668,374.19727,42.64716,411.4469,26.43365,446.89606,0,465.55957v18.831c35.70056-19.26385,54.447-60.26959,74.2207-103.5429,27.47071-60.11914,55.876-122.28467,133.05762-129.76905,55.668-5.39746,129.38965,23.42725,130.12793,23.72022L343.293,259.9209C340.13477,258.67139,265.28223,229.38037,205.7334,235.15283Z"/>
    <path class="cls-15" d="M298.10007,253.10686l-4.0218,6.25041a5.76023,5.76023,0,0,0,1.40013,7.73513L303.411,273.012l14.19855-1.86362c-6.325-11.079-15.92775-10.91618-15.92775-10.91618l2.19365-3.40923a3.43381,3.43381,0,1,0-5.77535-3.71612Z"/>
    <path class="cls-15" d="M307.16572,255.41223l2.7765-9.365,6.22563,1.96756-3.05706,9.16017a3.10045,3.10045,0,1,1-5.94507-1.76277Z"/>
    <path class="cls-15" d="M313.11128,257.174l2.42849-9.09632L321.729,249.921l-2.67273,9.01565a3.1004,3.1004,0,1,1-5.945-1.76271Z"/>
    <path class="cls-15" d="M320.10144,255.41064l1.27945-5.51158,6.29344,1.78359-1.62792,5.49071a3.1004,3.1004,0,0,1-5.945-1.76272Z"/>
    <path d="M317.61035,272.14844a.99842.99842,0,0,1-.86914-.50391c-5.05957-8.8623-12.31152-10.18359-14.41309-10.37695a1.00007,1.00007,0,1,1,.1836-1.9917c2.3457.21631,10.42773,1.67578,15.96582,11.37646a1.00006,1.00006,0,0,1-.86719,1.4961Z"/>
    <path class="cls-15" d="M308.55948,246.74832l-.29177.984a3.31832,3.31832,0,0,1-6.36268-1.88712l.29167-.98408,5.53472-1.66061Z"/>
    <line class="cls-16" x1="190.96062" y1="327.90627" x2="225.88172" y2="486.93546"/>
    <path d="M232.29478,198.12978s12.65266-.3356,18.11337,9.18564c4.899,8.54185-3.92774,18.46431-3.92774,18.46431l-24.5243-17.07084Z"/>
    <path d="M233.85761,198.12978s-13.22389-2.28413-21.6184,7.374c-7.87631,9.06194-5.26056,21.13507-11.32567,25.96241-6.95749,5.53759-20.29957,3.21822-33.17247,13.368-22.49163,17.73378-8.10745,48.05675-8.10745,48.05675l64.36449-29.45913Z"/>
    <path class="cls-11" d="M250.05056,490.801a15.26225,15.26225,0,0,1-13.25494-6.59519l-9.40922-14.06792L206.072,476.84293l13.59062,31.10939,43.11257-13.56226C260.69359,490.94157,257.6703,490.41409,250.05056,490.801Z"/>
    <path class="cls-11" d="M136.18509,427.39017a15.26228,15.26228,0,0,1,13.79166-5.38329l16.74089,2.48649,9.11138-19.451s-31.16325-11.49325-31.92291-11.68135L124.97591,434.401C128.92846,435.177,131.35084,433.29273,136.18509,427.39017Z"/>
    <g>
      <path class="cls-15" d="M113.44182,363.45911a2.56506,2.56506,0,0,1-.56789-3.38416l5.55588-9.22881-8.11854,9.51026a2.82663,2.82663,0,0,1-3.42364.75578,2.71529,2.71529,0,0,1-.96776-3.9273L113.10434,346.77l-6.00019,8.53307a3.00252,3.00252,0,0,1-4.7754.20481,3.16362,3.16362,0,0,1-.215-3.57877l5.19919-9.1841-5.67558,4.60864a2.10677,2.10677,0,0,1-2.81149-.075,2.024,2.024,0,0,1-.05316-2.72463L107.916,332.689l2.38617-3.40869L131.209,342.47056l-2.37263,3.40958-12.0057,17.14744a2.44457,2.44457,0,0,1-3.38883.43153Z"/>
      <path d="M107.47949,355.75586a.99992.99992,0,0,1-.80761-1.58887l6.876-9.4414a1.00029,1.00029,0,1,1,1.61719,1.17773l-6.876,9.44141A1.00082,1.00082,0,0,1,107.47949,355.75586Z"/>
      <path d="M107.3125,343.73145a.99994.99994,0,0,1-.80469-1.59278l1.03125-1.40234a1.00024,1.00024,0,0,1,1.61133,1.18555l-1.03125,1.40234A.99827.99827,0,0,1,107.3125,343.73145Z"/>
    </g>
    <path class="cls-17" d="M231.56583,331.67473s2.81914,87.2026-16.45563,94.21161c-15.19947,5.52708-65.94812-10.30047-65.94812-10.30047"/>
    <polygon points="215.738 494.472 179.812 329.916 214.365 322.767 248.398 479.21 215.738 494.472"/>
    <path class="cls-15" d="M235.931,241.00228l-21.23354-1.73769-1.96808,24.0453,21.23191,1.7393Z"/>
    <path class="cls-15" d="M248.31549,218.01167l.1298,22.99709a9.86379,9.86379,0,0,1-9.73494,9.92965l-24.33735.21093-.146-32.99165a15.46125,15.46125,0,0,1,15.33253-15.511h3.245a15.47781,15.47781,0,0,1,15.511,15.365Z"/>
    <path d="M231.8881,202.37542h-3.70693c-4.77083.03893-9.60429,1.53725-12.95722,4.93094a18.807,18.807,0,0,0-4.92874,13.17742v15.01308l13.23123-4.94258c13.44085-3.64285,5.15023-19.09355,24.15614-20.5237-1.51064-3.02129-6.00077-5.09738-8.3454-6.12976A18.01214,18.01214,0,0,0,231.8881,202.37542Z"/>
    <path d="M242.49075,228.02243a1.03839,1.03839,0,1,0-1.03839-1.03839A1.03936,1.03936,0,0,0,242.49075,228.02243Z"/>
    <path d="M240.02539,224.34033a1.25045,1.25045,0,0,1-.52832-2.38379,8.32291,8.32291,0,0,1,5.72754-.47656,1.24977,1.24977,0,1,1-.666,2.40918,5.83839,5.83839,0,0,0-4.00683.334A1.24209,1.24209,0,0,1,240.02539,224.34033Z"/>
    <path class="cls-8" d="M243.95839,240.167a35.83387,35.83387,0,0,1-6.73333-3.87775C236.96546,242.14647,240.48626,241.5137,243.95839,240.167Z"/>
    <path class="cls-15" d="M248.05588,228.3907c.16226,1.52514,1.81721,3.01784,2.83936,4.1698a6.40822,6.40822,0,0,1,1.49269,2.38506,1.62829,1.62829,0,0,1,.02272.69118,1.625,1.625,0,0,1-1.43428,1.32071l-6.49.66521Z"/>
    <path d="M169.13494,335.82s-6.65762,23.99256-3.14039,37.05657c3.039,11.28772,19.84724,28.89156,22.10832,40.69941,2.0185,10.54107-5.52708,48.7388-.25123,61.30035,3.35879,7.99712,14.5714,25.75117,14.5714,25.75117l36.5541-17.0837L197.90088,335.69443Z"/>
    <path d="M235.14087,251.0033h-4.94859a1.21871,1.21871,0,0,0-1.21687,1.21686,1.23262,1.23262,0,0,0,1.23308,1.21687h4.72145Z"/>
    <path d="M223.12823,224.96826s-1.56283,37.50775-25.12539,36.06515l9.978-35.82472,16.46975-9.61737,3.84695,4.92891Z"/>
    <path class="cls-7" d="M255.93523,347.50228c-22.35956,22.23394-56.27585-7.28572-95.97022,3.266.50246-22.10833,15.57632-61.04912,39.44325-85.41852l52.256,4.01969C258.19631,292.23148,259.20123,311.82749,255.93523,347.50228Z"/>
    <path class="cls-7" d="M141.37392,362.57614c-13.81873-6.35512-28.99953-16.33341-38.06145-27.63542A412.01289,412.01289,0,0,1,142.101,287.99853c25.744-26.348,36.05545-29.53588,39.44394-30.58217,21.28807-6.58309,65.10328-4.65931,82.6307,13.233,4.00914,4.0927,7.964,9.02054,14.87288,17.05993.08024.09336,7.03447-16.33,12.43594-28.89156,10.04923,8.66747,23.49009,15.07386,38.94079,18.21424a251.27267,251.27267,0,0,1-15.07385,26.37925c-15.98076,23.84431-27.133,27.38418-34.8952,28.8404-12.91526,2.42294-20.166-8.357-22.61628-12.20234-2.6475-4.15622-5.44208-9.439-8.14418-14.54787-2.4213-4.58075-6.065-11.468-7.626-13.39126-1.80957-1.72378-8.53306-5.21923-21.892-6.75023-10.95547-1.25467-18.4296,2.82894-25.41717,4.98728C186.47255,293.46717,154.31223,325.51955,141.37392,362.57614Z"/>
    <path class="cls-15" d="M223.52384,235.40477a5.7274,5.7274,0,1,0-5.72739-5.7274A5.72753,5.72753,0,0,0,223.52384,235.40477Z"/>
    <g class="cls-18">
      <path class="cls-19" d="M163.174,268.46787c.72232,6.73971,4.91733,13.177,9.37119,14.88549,4.02919,1.54556,8.52533-2.78985,11.618-4.58215,3.09265-1.79229,9.26569-3.84965,14.18162-1.31337,4.916,2.53621,7.46991,13.05963,9.14048,16.55926,2.28146,4.77958,5.91425,10.73374,11.4672,11.52006a13.51,13.51,0,0,0,11.25911-3.11068c3.56649-3.00574,4.5749-8.63258,3.9562-13.17022-1.2658-9.2847-10.70281-19.1358-15.58831-28.71327-.9034-1.771-1.94329-3.97981-3.09349-6.43058-12.85223-.64718-25.26691.62156-33.94113,3.30395C179.29727,258.1104,173.99719,259.75506,163.174,268.46787Z"/>
      <path class="cls-19" d="M156.14169,314.84171c.36541-6.63636-4.11053-18.42552-10.67064-30.24385-1.0963,1.0933-2.21217,2.21558-3.3701,3.40067a412.01289,412.01289,0,0,0-38.78848,46.94219c6.17562,7.70216,15.19415,14.78668,24.68555,20.53156a22.0393,22.0393,0,0,0,10.49416-6.1479c6.43309-6.719,5.43241-16.58308,7.14086-22.49483C147.23542,321.28517,155.80232,321.00507,156.14169,314.84171Z"/>
      <path class="cls-19" d="M164.59125,294.581c-2.21085,1.7455-5.21791,4.36027-5.28943,8.00566-.05913,3.01514,3.10894,5.1053,5.218,5.64683,5.28943,1.35808,17.012.7148,20.01412-.3574,3.00211-1.07213,8.506-3.78837,8.22-9.29222-.28588-5.50392-5.50385-8.79192-10.07848-9.29229C178.10076,288.79126,167.30748,292.43666,164.59125,294.581Z"/>
      <path class="cls-19" d="M283.01116,297.5526c-.05613-9.397,16.97155-19.59759,12.82048-32.56738a8.89737,8.89737,0,0,0-4.7061-5.33253c-5.34542,12.442-11.99843,28.148-12.077,28.05662-6.909-8.03937-10.86382-12.96722-14.873-17.05992-7.56127-7.71867-20.01725-12.45973-33.44389-14.83389a29.75852,29.75852,0,0,0,3.081,11.74584c3.42971,7.11118,15.57982,16.4681,18.92666,24.26442,1.89161,4.40609,4.799,21.01327,9.36124,25.758,4.70722,4.89568,13.7027,4.68417,18.81342-.33755C287.15707,311.11177,283.041,302.51506,283.01116,297.5526Z"/>
      <path class="cls-19" d="M255.93531,347.50227c.75547-8.252,1.27639-15.62933,1.55844-22.39816-16.42248-21.28633-60.98453-16.92467-70.71313-8.24035-8.76106,7.82069,2.13995,16.79361-.63973,24.33782-1.12631,3.05692-3.91045,5.03391-6.79744,7.20917C210.6657,348.63778,237.31034,366.02258,255.93531,347.50227Z"/>
      <path class="cls-19" d="M315.35137,303.41121c4.0973-6.11342,7.93456-12.82661,10.714-17.95467-10.38887-.86105-25.11084,1.51283-28.389,7.24294-3.44977,6.03063.53652,15.94224-.77469,19.39884s-7.47938,8.58194-7.24107,13.4093a14.143,14.143,0,0,0,.68973,3.4419C296.97822,325.52349,305.18675,318.57743,315.35137,303.41121Z"/>
    </g>
    <path d="M226.73633,232.92285a1.24493,1.24493,0,0,1-.87305-.35547l-4.08887-3.99121a1.25,1.25,0,0,1,1.7461-1.78906l4.08887,3.99121a1.25,1.25,0,0,1-.873,2.14453Z"/>
    <path d="M272.7666,302.77734a1.24983,1.24983,0,0,1-1.083-1.873,141.94676,141.94676,0,0,0,9.20508-19.52637,1.25008,1.25008,0,0,1,2.34961.85449,144.44024,144.44024,0,0,1-9.38672,19.918A1.24959,1.24959,0,0,1,272.7666,302.77734Z"/>
    <path d="M160.90625,324.75977a1.24991,1.24991,0,0,1-1.05273-1.92286c9.88671-15.49218,26.35449-26.65332,27.0498-27.12109a1.25012,1.25012,0,0,1,1.39453,2.0752c-.166.1123-16.7373,11.34765-26.33691,26.3916A1.24992,1.24992,0,0,1,160.90625,324.75977Z"/>
    <path d="M256.94141,325.89062c-.03125,0-.06348-.001-.09571-.0039a1.24871,1.24871,0,0,1-1.15136-1.34082c1.48828-19.60938,2.25195-32.0166,2.25878-32.13965a1.27629,1.27629,0,0,1,1.32422-1.17187,1.25131,1.25131,0,0,1,1.17188,1.32421c-.00781.12305-.77246,12.54688-2.2627,32.17676A1.24986,1.24986,0,0,1,256.94141,325.89062Z"/>
    <path class="cls-15" d="M197.52362,254.46633c5.12354,8.13659,15.54778,14.83626,28.07995,15.69592a38.28244,38.28244,0,0,0,26.30673-7.91986C236.4511,254.899,214.76509,252.85489,197.52362,254.46633Z"/>
    <rect class="cls-8" x="181.03685" y="506.15936" width="81.7383" height="9.36493"/>
    <path class="cls-8" d="M248.39746,480.46a1.2515,1.2515,0,0,1-1.2207-.98437L222.72461,367.07617a1.25022,1.25022,0,0,1,2.44336-.53125l24.45215,112.39942a1.24928,1.24928,0,0,1-1.22266,1.51562Z"/>
    <path class="cls-8" d="M184.8457,453.169c-.02343,0-.0459-.001-.06933-.002a1.25025,1.25025,0,0,1-1.17969-1.3164c.28809-5.23145.78125-10.67676,1.25781-15.94239.84375-9.31836,1.64063-18.12011.87989-22.09668-.88282-4.61425-4.61036-10.36621-8.21387-15.92871a1.2498,1.2498,0,1,1,2.09765-1.35937c3.73438,5.76465,7.59668,11.72461,8.57129,16.81738.82715,4.32227.05274,12.88184-.84472,22.793-.47461,5.24414-.96582,10.667-1.252,15.85351A1.25042,1.25042,0,0,1,184.8457,453.169Z"/>
    <g>
      <path class="cls-7" d="M341.34551,257.20634H363.056a0,0,0,0,1,0,0V286.215a0,0,0,0,1,0,0H341.34551a2.42365,2.42365,0,0,1-2.42365-2.42365V259.63a2.42365,2.42365,0,0,1,2.42365-2.42365Z" transform="translate(127.03091 -111.51605) rotate(21.95346)"/>
      <path d="M369.68743,270.17434h27.52948a3.6344,3.6344,0,0,1,3.6344,3.6344v0a3.6344,3.6344,0,0,1-3.6344,3.6344H369.68743a0,0,0,0,1,0,0v-7.26881A0,0,0,0,1,369.68743,270.17434Z" transform="translate(130.30104 -124.17978) rotate(21.95346)"/>
      <path d="M361.55993,290.33777h27.52948a3.6344,3.6344,0,0,1,3.6344,3.6344v0a3.6344,3.6344,0,0,1-3.6344,3.6344H361.55993a0,0,0,0,1,0,0v-7.26881A0,0,0,0,1,361.55993,290.33777Z" transform="translate(137.24986 -119.67919) rotate(21.95346)"/>
      <path class="cls-7" d="M360.41489,252.72167h16.2805a3.24969,3.24969,0,0,1,3.24969,3.24969v42.36511a3.24969,3.24969,0,0,1-3.24969,3.24969h-16.2805A11.37391,11.37391,0,0,1,349.041,290.21226V264.09558a11.37391,11.37391,0,0,1,11.37391-11.37391Z" transform="translate(130.04511 -116.16991) rotate(21.95346)"/>
      <path d="M345.07227,285.25293a1.25,1.25,0,0,1-1.15918-1.71777l10.25488-25.4419a1.24982,1.24982,0,1,1,2.31836.93457L346.23145,284.4707A1.2508,1.2508,0,0,1,345.07227,285.25293Z"/>
      <path d="M339.94434,283.29688a1.25,1.25,0,0,1-1.15918-1.71778L349.041,256.13721a1.24982,1.24982,0,1,1,2.31836.93457l-10.25586,25.44287A1.2508,1.2508,0,0,1,339.94434,283.29688Z"/>
    </g>
    <path class="cls-11" d="M642.5,506.75H67.5a1.25,1.25,0,0,1,0-2.5h575a1.25,1.25,0,0,1,0,2.5Z"/>
  </g>
</svg>
